<svg width="20" height="20" viewBox="0 0 20 20" fill="none" xmlns="http://www.w3.org/2000/svg">
<path d="M2 3V8.5C2 9.6 2.9 10.5 4 10.5H16C17.1 10.5 18 9.6 18 8.5V3H2ZM13.5 6H9.24V4.5H13.5V6ZM16.5 6H15V4.5H16.5V6Z" fill="black"/>
<path d="M10.73 12H9.23V17H10.73V12Z" fill="black"/>
<path d="M3.48 17V15.5C4.72 15.5 5.73 14.49 5.73 13.25V11.99H7.23V13.25C7.23 15.32 5.55 17 3.48 17Z" fill="black"/>
<path d="M16.48 17C14.41 17 12.73 15.32 12.73 13.25V11.99H14.23V13.25C14.23 14.49 15.24 15.5 16.48 15.5V17Z" fill="black"/>
</svg>
