<svg width="20" height="20" viewBox="0 0 20 20" fill="none" xmlns="http://www.w3.org/2000/svg">
<path d="M17.5 3.5H7.5C6.95 3.5 6.5 3.95 6.5 4.5V12.5C6.5 13.05 6.95 13.5 7.5 13.5H11.5V14.5H9.5C8.95 14.5 8.5 14.95 8.5 15.5V16.5H16.5V15.5C16.5 14.95 16.05 14.5 15.5 14.5H13.5V13.5H17.5C18.05 13.5 18.5 13.05 18.5 12.5V4.5C18.5 3.95 18.05 3.5 17.5 3.5ZM16.5 11.5H8.5V5.5H16.5V11.5Z" fill="#222222"/>
<path d="M4.5 3.5H2.5C1.95 3.5 1.5 3.95 1.5 4.5V16.76H5.5V4.5C5.5 3.95 5.05 3.5 4.5 3.5ZM4.25 7H2.75V5.5H4.25V7Z" fill="#222222"/>
</svg>
