<svg width="20" height="20" viewBox="0 0 20 20" fill="none" xmlns="http://www.w3.org/2000/svg">
<path d="M17.5 3.5H6.5C5.95 3.5 5.5 3.95 5.5 4.5V12.5C5.5 13.05 5.95 13.5 6.5 13.5H11V14.5H9C8.45 14.5 8 14.95 8 15.5V16.5H16V15.5C16 14.95 15.55 14.5 15 14.5H13V13.5H17.5C18.05 13.5 18.5 13.05 18.5 12.5V4.5C18.5 3.95 18.05 3.5 17.5 3.5ZM16.5 11.5H7.5V5.5H16.5V11.5Z" fill="black"/>
<path d="M4.5 12.5V11.5H3.5V5.5H4.5V4.5C4.5 4.13 4.61 3.8 4.78 3.5H2.5C1.95 3.5 1.5 3.95 1.5 4.5V12.5C1.5 13.05 1.95 13.5 2.5 13.5H4.78C4.61 13.2 4.5 12.87 4.5 12.5Z" fill="black"/>
<path d="M7 15.5C7 15.14 7.1 14.79 7.27 14.5H5C4.45 14.5 4 14.95 4 15.5V16.5H7V15.5Z" fill="black"/>
</svg>
