<svg width="20" height="20" viewBox="0 0 20 20" fill="none" xmlns="http://www.w3.org/2000/svg">
<path d="M17.9805 10.4525V10.3425C17.9805 9.56247 17.3905 8.93247 16.6305 8.85247H16.5605L16.1705 7.85247L15.0505 4.94247C14.6605 3.94247 13.7005 3.28247 12.6205 3.28247H7.37047C6.29047 3.28247 5.32047 3.95247 4.94047 4.97247L3.86047 7.86247L3.47047 8.86247H3.37047C2.59047 8.92247 1.98047 9.56247 1.98047 10.3625C1.98047 10.4025 1.98047 10.4425 1.98047 10.4725V13.5425L1.98047 15.7725C1.98047 16.3125 2.43047 16.7625 2.98047 16.7625C3.53047 16.7625 3.98047 16.3125 3.98047 15.7625V14.8725H15.9805V15.7625C15.9805 16.3125 16.4305 16.7625 16.9805 16.7625C17.5305 16.7625 17.9805 16.3125 17.9805 15.7625V13.5925V10.4525ZM6.81047 5.66247C6.90047 5.43247 7.12047 5.27247 7.37047 5.27247H12.6305C12.8805 5.27247 13.1005 5.42247 13.1905 5.65247L14.4205 8.84247H5.62047L6.81047 5.65247V5.66247ZM7.18047 12.7625H3.60047V11.2625H7.18047V12.7625ZM16.3505 12.7625H12.7705V11.2625H16.3505V12.7625Z" fill="black"/>
</svg>
