<svg width="20" height="20" viewBox="0 0 20 20" fill="none" xmlns="http://www.w3.org/2000/svg">
<path d="M9 8.25H4C3.45 8.25 3 8.7 3 9.25V18H10V9.25C10 8.7 9.55 8.25 9 8.25Z" fill="black"/>
<path d="M11.5 2L12.5 13.5H16.5L17.5 2H11.5Z" fill="black"/>
<path d="M12.5 17C12.5 17.55 12.95 18 13.5 18H15.5C16.05 18 16.5 17.55 16.5 17V15H12.5V17Z" fill="black"/>
<path d="M4 2V3.5H5.79V5.13H5.5C4.95 5.13 4.5 5.58 4.5 6.13V7H8.5V6.13C8.5 5.58 8.05 5.13 7.5 5.13H7.29V3.5H8.36L9.14 4.28L10.2 3.22L8.98 2H4Z" fill="black"/>
</svg>
