<svg width="20" height="20" viewBox="0 0 20 20" fill="none" xmlns="http://www.w3.org/2000/svg">
<path d="M12.9277 10.524H11.4004V18H12.9277V10.524Z" fill="black"/>
<path d="M15.7265 10.524H14.1992V15.5147H15.7265V10.524Z" fill="black"/>
<path d="M10.1269 10.524H8.59961V15.5147H10.1269V10.524Z" fill="black"/>
<path d="M10.1269 16.5028H8.59961V18H10.1269V16.5028Z" fill="black"/>
<path d="M15.7265 16.5028H14.1992V18H15.7265V16.5028Z" fill="black"/>
<path d="M7.12364 9.01684H17C17 6.3718 14.8313 4.22583 12.1433 4.1859L11.3389 2.92826C10.9622 2.34934 10.3207 2 9.61818 2H5.03636C3.91636 2 3 2.89832 3 3.99626V18H5.03636V3.99626H9.61818L10.0255 4.62508C8.32509 5.38366 7.13382 7.06051 7.13382 9.02682L7.12364 9.01684Z" fill="black"/>
</svg>
