<svg width="20" height="20" viewBox="0 0 20 20" fill="none" xmlns="http://www.w3.org/2000/svg">
<path fill-rule="evenodd" clip-rule="evenodd" d="M3.52001 4H7.52001C8.07001 4 8.52001 4.45 8.52001 5V8C9.07001 8 9.52001 8.45 9.52001 9V12H1.52001V9C1.52001 8.45 1.97001 8 2.52001 8V5C2.52001 4.45 2.97001 4 3.52001 4ZM4.02001 8H7.02001V6.5H4.02001V8Z" fill="black"/>
<path d="M9.53001 13H1.51001V15H1.53001V16.02H3.53001V15H7.53001V16.02H9.53001L9.53001 13Z" fill="black"/>
<path fill-rule="evenodd" clip-rule="evenodd" d="M17.52 5V8C18.07 8 18.52 8.45 18.52 9V12H10.52V9C10.52 8.45 10.97 8 11.52 8V5C11.52 4.45 11.97 4 12.52 4H16.52C17.07 4 17.52 4.45 17.52 5ZM16.02 8H13.02V6.5H16.02V8Z" fill="black"/>
<path d="M18.53 13L18.53 16.02H16.53V15H12.53V16.02H10.53V15H10.51V13H18.53Z" fill="black"/>
</svg>
