<svg width="20" height="20" viewBox="0 0 20 20" fill="none" xmlns="http://www.w3.org/2000/svg">
<path d="M4.5 7.5V9.5H2V8.5C2 7.95 2.45 7.5 3 7.5H4.5Z" fill="black"/>
<path d="M6 3.5H14C15.1 3.5 16 4.4 16 5.5V6.5H4V5.5C4 4.4 4.9 3.5 6 3.5Z" fill="black"/>
<path d="M11.5 2.5H8.5V4.5H11.5V2.5Z" fill="black"/>
<path d="M18 8.5V9.5H15.5V7.5H17C17.55 7.5 18 7.95 18 8.5Z" fill="black"/>
<path d="M4 7.49V15.5C4 16.6 4.9 17.5 6 17.5H14C15.1 17.5 16 16.6 16 15.5V7.49H4ZM7.51 11.05V9.55H12.5V11.05H7.51Z" fill="black"/>
</svg>
