<svg width="20" height="20" viewBox="0 0 20 20" fill="none" xmlns="http://www.w3.org/2000/svg">
<path fill-rule="evenodd" clip-rule="evenodd" d="M9.7485 9.99001H5V5H9.75516C10.5613 3.79306 11.9359 3 13.5 3C15.99 3 18 5.01 18 7.5C18 9.27104 16.9832 10.7992 15.5 11.5341V16C15.5 16.55 15.05 17 14.5 17H12.5C11.95 17 11.5 16.55 11.5 16V15H10.5801V13H11.5V11.5341C10.7887 11.1817 10.1846 10.6467 9.7485 9.99001ZM13.5 6C14.33 6 15 6.67 15 7.5C15 8.33 14.33 9 13.5 9C12.67 9 12 8.33 12 7.5C12 6.67 12.67 6 13.5 6Z" fill="black"/>
<path d="M4 5H2V10H4V5Z" fill="black"/>
</svg>
