<svg width="20" height="20" viewBox="0 0 20 20" fill="none" xmlns="http://www.w3.org/2000/svg">
<path d="M4.46974 2.89998C2.75974 4.29998 2.50974 6.81998 3.89974 8.52998L10.0997 3.46998C8.69974 1.75998 6.17974 1.50998 4.46974 2.89998Z" fill="black"/>
<path d="M11.2191 6.41999C9.66906 7.68999 8.11906 8.94999 6.57906 10.22C6.30906 10.17 5.97906 10.09 5.60906 9.93999C5.14906 9.74999 4.78906 9.50999 4.53906 9.30999C6.59906 7.61999 8.66906 5.92999 10.7291 4.23999C10.8691 4.42999 11.0791 4.76999 11.1891 5.23999C11.3091 5.74999 11.2591 6.17999 11.2191 6.41999Z" fill="black"/>
<path fill-rule="evenodd" clip-rule="evenodd" d="M7.3801 10.811L7.37914 10.81L7.36914 10.82C7.37279 10.817 7.37645 10.814 7.3801 10.811ZM15.61 15.4213C15.9225 15.1708 16.2354 14.9204 16.5491 14.67C14.9391 12.2 13.3291 9.73001 11.7091 7.26001C10.9841 7.85501 10.2616 8.44751 9.53914 9.04001C8.82028 9.62952 8.10142 10.219 7.3801 10.811C8.3898 11.8707 9.39951 12.9279 10.4092 13.9851C11.4192 15.0426 12.4292 16.1 13.4391 17.16C13.7735 16.8932 14.1068 16.6264 14.4397 16.3596L15.9394 18.2115L17.1051 17.2676L15.61 15.4213ZM10.7791 11.76L11.9491 10.82L11.0091 9.65001L9.83914 10.59L10.7791 11.76Z" fill="black"/>
</svg>
