<svg width="20" height="20" viewBox="0 0 20 20" fill="none" xmlns="http://www.w3.org/2000/svg">
<path d="M9.3 14.5L6.5 11.7V14.5L9.3 14.5Z" fill="black"/>
<path d="M13.5 14.5V13.54L7.07031 7.1C6.71031 7.65 6.5 8.3 6.5 9V9.37L11.64 14.5L13.5 14.5Z" fill="black"/>
<path d="M10 2C6.13 2 3 5.13 3 9V18H17V9C17 5.13 13.87 2 10 2ZM15 16H10.8L11.1 16.3L9.69 17.71L7.97 15.99H5V13.02L3.09 11.12L4.5 9.71L5 10.21V9.01C5 6.25 7.24 4.01 10 4.01C12.76 4.01 15 6.25 15 9.01V16.01V16Z" fill="black"/>
<path d="M9.6907 17.72L11.1 16.3L10.8 16H7.9707L9.6907 17.72Z" fill="black"/>
<path d="M4.49984 9.7L3.09 11.12L4.99984 13.03V10.2L4.49984 9.7Z" fill="black"/>
</svg>
