<svg width="20" height="20" viewBox="0 0 20 20" fill="none" xmlns="http://www.w3.org/2000/svg">
<path d="M9.99969 3.25C6.63969 3.25 3.60969 4.64 1.42969 6.87L2.84969 8.28C4.66969 6.42 7.19969 5.25 9.99969 5.25C12.7997 5.25 15.3397 6.41 17.1497 8.28L18.5697 6.87C16.3897 4.64 13.3597 3.25 9.99969 3.25Z" fill="black"/>
<path d="M3.90969 9.33L5.32969 10.74C6.50969 9.51 8.16969 8.75 9.99969 8.75C11.8297 8.75 13.4897 9.52 14.6697 10.74L16.0897 9.33C14.5397 7.74 12.3897 6.75 9.99969 6.75C7.60969 6.75 5.45969 7.74 3.90969 9.33Z" fill="black"/>
<path d="M6.38969 11.8L7.80969 13.21C8.35969 12.62 9.12969 12.25 9.99969 12.25C10.8697 12.25 11.6397 12.62 12.1897 13.21L13.6097 11.8C12.6997 10.85 11.4197 10.25 9.99969 10.25C8.57969 10.25 7.29969 10.85 6.38969 11.8Z" fill="black"/>
<path d="M9.99969 13.75C9.54969 13.75 9.14969 13.95 8.86969 14.27C8.63969 14.53 8.49969 14.87 8.49969 15.25C8.49969 16.08 9.16969 16.75 9.99969 16.75C10.8297 16.75 11.4997 16.08 11.4997 15.25C11.4997 14.87 11.3597 14.54 11.1297 14.27C10.8497 13.95 10.4497 13.75 9.99969 13.75Z" fill="black"/>
</svg>
