<svg width="20" height="20" viewBox="0 0 20 20" fill="none" xmlns="http://www.w3.org/2000/svg">
<path d="M18 10H5.99V5.5C5.99 5.22 6.22 5 6.49 5C6.76 5 6.99 5.23 6.99 5.5V6.5H8.98V5.5C8.98 4.12 7.86 3 6.48 3C5.1 3 4 4.12 4 5.5V10H2V12H3V14C3 15.66 4.34 17 6 17H14C15.66 17 17 15.66 17 14V12H18V10Z" fill="black"/>
<path d="M12.6 8.51C13.4837 8.51 14.2 7.79366 14.2 6.91C14.2 6.02634 13.4837 5.31 12.6 5.31C11.7163 5.31 11 6.02634 11 6.91C11 7.79366 11.7163 8.51 12.6 8.51Z" fill="black"/>
<path d="M15.3 5.01C15.8523 5.01 16.3 4.56228 16.3 4.01C16.3 3.45772 15.8523 3.01 15.3 3.01C14.7477 3.01 14.3 3.45772 14.3 4.01C14.3 4.56228 14.7477 5.01 15.3 5.01Z" fill="black"/>
</svg>
